<?xml version="1.0" encoding="utf-8"?>
<!-- Generator: Adobe Illustrator 17.1.0, SVG Export Plug-In . SVG Version: 6.00 Build 0)  -->
<!DOCTYPE svg PUBLIC "-//W3C//DTD SVG 1.1//EN" "http://www.w3.org/Graphics/SVG/1.1/DTD/svg11.dtd">
<svg version="1.1" id="vector" xmlns="http://www.w3.org/2000/svg" xmlns:xlink="http://www.w3.org/1999/xlink" width="123" height="20" x="0px" y="0px"
	 viewBox="0 0 123.02 20" enable-background="new 0 0 123.02 20" xml:space="preserve" fill="#fff">
<path d="M15.744,20L3.246,6.513C2.951,6.19,2.631,5.843,2.334,5.467v14.134H0V0.265h0.564L12.74,13.269
	c0.455,0.483,0.885,0.992,1.342,1.476V0.664h2.25V20H15.744z" />
<path d="M34.395,16.14c1.02-0.779,2.842-2.683,2.842-6.086c0-0.565-0.027-1.797-0.59-3.164c-1.152-2.764-3.781-4.321-6.758-4.321
	c-2.467,0-3.916,1.02-4.691,1.637c-2.443,2.066-2.656,4.856-2.656,5.901c0,0.83,0.135,3.004,1.637,4.934
	c0.775,0.992,2.6,2.763,5.926,2.625C30.854,17.642,32.68,17.454,34.395,16.14 M25.84,19.172c-3.701-1.531-5.82-5.125-5.82-9.04
	c0-1.099,0.189-3.836,2.199-6.303c1.072-1.314,3.461-3.485,7.725-3.485c1.205,0,4.131,0.133,6.676,2.413
	C39.49,5.305,39.783,8.764,39.783,10c0,0.695-0.078,2.277-0.83,3.994c-1.582,3.728-5.096,5.874-9.092,5.927
	C29.191,19.921,27.555,19.892,25.84,19.172"/>
<path d="M57.73,19.898l-3.379-9.569c-0.535-1.611-1.047-3.222-1.557-4.831c-0.695,2.04-1.392,4.075-2.09,6.09l-3.004,8.31h-0.645
	L39.684,0.563h2.547l3.352,8.93c0.348,0.887,0.67,1.772,0.965,2.657c0.297,0.857,0.562,1.717,0.832,2.575
	c0.35-1.183,0.752-2.361,1.152-3.516L52.502,0h0.643l3.217,9.144c0.324,0.941,0.645,1.878,0.939,2.844
	c0.295,0.912,0.562,1.822,0.834,2.737c0.373-1.02,0.723-2.038,1.098-3.06c0.295-0.804,0.617-1.608,0.912-2.413l3.404-8.688h2.387
	l-7.588,19.335H57.73z"/>
<path d="M84.422,20L71.924,6.513c-0.295-0.323-0.617-0.67-0.912-1.046v14.134H68.68V0.265h0.562l12.176,13.004
	c0.455,0.483,0.885,0.992,1.34,1.476V0.664h2.254V20H84.422z"/>
<polygon points="88.385,19.602 88.385,0.665 98.281,0.665 98.281,2.918 90.797,2.918 90.797,8.227 98.199,8.227 98.199,10.346 
	90.797,10.346 90.797,17.4 98.361,17.4 98.361,19.602 "/>
<path d="M102.818,14.932c0.51,1.501,1.367,2.872,3.191,2.872c0.777,0,1.422-0.272,1.984-0.859c0.805-0.858,0.805-1.904,0.805-2.308
	c0-1.793-1.207-2.519-2.574-3.351l-1.02-0.536c-0.857-0.512-1.959-1.181-2.654-1.905c-0.51-0.587-1.26-1.581-1.26-3.461
	c0-0.696,0.08-1.337,0.293-1.954c0.35-1.023,1.582-3.086,4.533-3.086c2.279,0,3.514,1.316,4.049,1.958
	c0.35,0.457,0.51,0.778,0.752,1.234l-1.904,1.099c-0.082-0.158-0.162-0.293-0.24-0.43c-0.217-0.373-1.021-1.742-2.576-1.742
	c-0.293,0-1.26,0.106-1.902,0.805c-0.484,0.534-0.699,1.366-0.699,2.038c0,0.671,0.16,1.019,0.297,1.258
	c0.373,0.673,0.83,1.076,2.062,1.797l1.852,1.048c1.02,0.616,1.877,1.179,2.521,2.199c0.295,0.455,0.803,1.527,0.803,2.977
	c0,0.347-0.025,1.096-0.375,1.984c-0.777,2.088-2.574,3.352-4.801,3.352c-0.83,0-2.977-0.215-4.371-2.255
	c-0.4-0.588-0.59-1.072-0.857-1.741L102.818,14.932z"/>
<path d="M114.707,14.932c0.508,1.501,1.365,2.872,3.189,2.872c0.777,0,1.422-0.272,1.986-0.859c0.803-0.858,0.803-1.904,0.803-2.308
	c0-1.793-1.205-2.519-2.576-3.351l-1.018-0.536c-0.857-0.512-1.957-1.181-2.654-1.905c-0.51-0.587-1.26-1.581-1.26-3.461
	c0-0.696,0.08-1.337,0.295-1.954c0.348-1.023,1.582-3.086,4.531-3.086c2.279,0,3.514,1.316,4.051,1.958
	c0.348,0.457,0.508,0.778,0.75,1.234L120.9,4.634c-0.08-0.158-0.16-0.293-0.24-0.43c-0.217-0.373-1.02-1.742-2.576-1.742
	c-0.295,0-1.26,0.106-1.902,0.805c-0.482,0.534-0.697,1.366-0.697,2.038c0,0.671,0.16,1.019,0.293,1.258
	c0.375,0.673,0.832,1.076,2.066,1.797l1.85,1.048c1.02,0.616,1.877,1.179,2.521,2.199c0.295,0.455,0.805,1.527,0.805,2.977
	c0,0.347-0.027,1.096-0.377,1.984c-0.777,2.088-2.572,3.352-4.799,3.352c-0.832,0-2.979-0.215-4.371-2.255
	c-0.402-0.588-0.59-1.072-0.858-1.741L114.707,14.932z"/>
</svg>
