<svg version="1.1" xmlns="http://www.w3.org/2000/svg" viewBox="0 0 108 94">
<defs>
	<linearGradient id="spotify-grd" x1="0%" x2="0%" y1="0%" y2="100%">
	  <stop offset="0%" stop-color="rgb(255,94,58)" stop-opacity="1" />
	  <stop offset="100%" stop-color="rgb(255,42,104)" stop-opacity="1" />
	</linearGradient>
</defs>
<path fill="url(#spotify-grd)"
 d="M54.000,94.001 C54.000,94.001 -0.007,-0.002 -0.007,-0.002 C-0.007,-0.002 108.013,0.013 108.013,0.013 C108.013,0.013 54.000,94.001 54.000,94.001 ZM37.918,41.402 C38.300,41.402 38.939,41.206 39.446,41.096 C42.569,40.447 45.907,40.021 49.224,40.021 C55.169,40.021 60.771,41.449 65.264,44.167 C65.733,44.453 66.075,44.626 66.576,44.626 C67.596,44.626 68.504,43.806 68.504,42.688 C68.504,41.541 68.050,41.080 67.276,40.628 C62.074,37.510 56.028,35.952 49.245,35.952 C45.284,35.952 41.471,36.452 37.642,37.324 C36.707,37.503 35.956,38.151 35.956,39.454 C35.956,40.466 36.741,41.402 37.918,41.402 ZM37.090,32.545 C37.655,32.545 37.994,32.367 38.599,32.200 C41.403,31.452 44.791,30.903 48.716,30.903 C56.370,30.903 63.358,32.891 68.401,35.884 C68.858,36.150 69.281,36.422 69.954,36.422 C71.301,36.422 72.370,35.337 72.370,33.995 C72.370,32.891 71.989,32.139 70.955,31.545 C64.783,27.851 56.934,25.830 48.819,25.830 C43.640,25.830 40.082,26.569 36.597,27.526 C35.308,27.889 34.669,28.797 34.669,30.115 C34.669,31.459 35.757,32.545 37.090,32.545 ZM75.127,21.160 C68.131,17.051 58.554,15.179 49.452,15.179 C44.089,15.179 39.157,15.785 34.738,17.087 C33.612,17.420 32.568,18.366 32.568,20.051 C32.568,21.704 33.836,23.012 35.490,23.012 C36.060,23.012 36.629,22.787 37.080,22.673 C40.990,21.612 45.260,21.185 49.463,21.185 C57.884,21.185 66.592,23.037 72.203,26.402 C72.794,26.726 73.169,26.879 73.800,26.879 C75.366,26.879 76.724,25.665 76.724,23.975 C76.724,22.499 76.070,21.694 75.127,21.160 Z"/>
</svg>