<svg class="logo-shape" version="1.1" xmlns="http://www.w3.org/2000/svg" viewBox="0 0 22 19">
  <defs>
    <linearGradient id="grd" x1="0" x2="0" y1="0" y2="100%">
      <stop offset="0%" stop-color="#ff5e3a" stop-opacity="1"></stop>
      <stop offset="100%" stop-color="#ff2a68" stop-opacity="1"></stop>
    </linearGradient>
  </defs>
	<path fill="url(#grd)" d="M11.000,19.001 C11.000,19.001 5.789,10.001 5.789,10.001 C5.789,10.001 9.200,10.001 9.200,10.001 C9.200,10.001 11.000,13.001 11.000,13.001 C11.000,13.001 17.000,3.001 17.000,3.001 C17.000,3.001 5.000,3.001 5.000,3.001 C5.000,3.001 7.100,6.501 7.100,6.501 C7.100,6.501 5.402,9.331 5.402,9.331 C5.402,9.331 0.000,0.001 0.000,0.001 C0.000,0.001 22.000,0.001 22.000,0.001 C22.000,0.001 11.000,19.001 11.000,19.001 Z"/>
</svg>